# xmcd
#
# Track frame offsets:
#	150
#	10017
#	22991
#	36080
#	48572
#	62631
#	84047
#	99784
#	115713
#	130930
#	156497
#	170758
#	182687
#	193865
#	209090
#
# Disc length: 3097 seconds
#
# Revision: 1
# Processed by: cddbd v1.5.1PL0 Copyright (c) Steve Scherf et al.
# Submitted via: audiograbber 1.83.01
#
DISCID=c20c170f
DTITLE=Various Artist - Working On A Chain Gang - Ball and Chain
DYEAR=2005
DGENRE=Blues
TTITLE0=John Lee Hooker - Dimples
TTITLE1=Howlin Wolf - Aint Supersitious
TTITLE2=Elmore James - Dust My Broom
TTITLE3=Jimmy Reed - Honest I Do
TTITLE4=Sonny Boy Williamson - Help Me
TTITLE5=Lightning Hopkins - Shake It Baby
TTITLE6=Memphis Slim - Born With The Blues
TTITLE7=Screaming Jay Hawkins - I Put A Spell On You
TTITLE8=Muddy Waters - Hoochie Coochie Man
TTITLE9=Big Mama Thornton - Little Red Rooster
TTITLE10=Mississippi John Hurt - Candy Man Blues
TTITLE11=Little Walter - My Babe
TTITLE12=Bo Diddley - Bo Diddley
TTITLE13=Leadbelly - Boll Weevil
TTITLE14=Chuck Berry - In The Wee Wee Hours
EXTD=
EXTT0=
EXTT1=
EXTT2=
EXTT3=
EXTT4=
EXTT5=
EXTT6=
EXTT7=
EXTT8=
EXTT9=
EXTT10=
EXTT11=
EXTT12=
EXTT13=
EXTT14=
PLAYORDER=
